HIERARCHY
ROOT hip
{
	OFFSET 0.000000 0.000000 0.000000 
	CHANNELS 6 Xposition Yposition Zposition Xrotation Zrotation Yrotation
	JOINT abdomen
	{
		OFFSET 0.000000 3.402643 0.000000 
		CHANNELS 3 Xrotation Zrotation Yrotation
		JOINT chest
		{
			OFFSET 0.000000 8.438565 -0.680529 
			CHANNELS 3 Xrotation Zrotation Yrotation
			JOINT neck
			{
				OFFSET 0.000000 10.207942 -0.272212 
				CHANNELS 3 Xrotation Zrotation Yrotation
				JOINT head
				{
					OFFSET 0.000000 3.130431 0.000000 
					CHANNELS 3 Xrotation Zrotation Yrotation
					End Site
					{
						OFFSET 0.000000 3.130435 0.000000 
					}
				}
			}
			JOINT lCollar
			{
				OFFSET 3.470700 6.669187 -0.816635 
				CHANNELS 3 Yrotation Zrotation Xrotation
				JOINT lShldr
				{
					OFFSET 3.198488 0.000000 0.000000 
					CHANNELS 3 Zrotation Yrotation Xrotation
					JOINT lForeArm
					{
						OFFSET 10.139888 0.000000 0.000000 
						CHANNELS 3 Yrotation Zrotation Xrotation
						JOINT lHand
						{
							OFFSET 8.370511 0.000000 0.000000 
							CHANNELS 3 Zrotation Yrotation Xrotation
							End Site
							{
								OFFSET 4.083176 0.000000 0.000000 
							}
						}
					}
				}
			}
			JOINT rCollar
			{
				OFFSET -3.470700 6.669187 -0.816635 
				CHANNELS 3 Yrotation Zrotation Xrotation
				JOINT rShldr
				{
					OFFSET -3.198488 0.000000 0.000000 
					CHANNELS 3 Zrotation Yrotation Xrotation
					JOINT rForeArm
					{
						OFFSET -10.139888 0.000000 0.000000 
						CHANNELS 3 Yrotation Zrotation Xrotation
						JOINT rHand
						{
							OFFSET -8.370511 0.000000 0.000000 
							CHANNELS 3 Zrotation Yrotation Xrotation
							End Site
							{
								OFFSET -4.083176 0.000000 0.000000 
							}
						}
					}
				}
			}
		}
	}
	JOINT lThigh
	{
		OFFSET 5.308129 -1.633274 1.361059 
		CHANNELS 3 Xrotation Zrotation Yrotation
		JOINT lShin
		{
			OFFSET -2.041588 -20.007561 0.000000 
			CHANNELS 3 Xrotation Zrotation Yrotation
			JOINT lFoot
			{
				OFFSET 0.000000 -19.190928 -1.224953 
				CHANNELS 3 Xrotation Yrotation Zrotation
				End Site
				{
					OFFSET 0.000000 -2.449906 4.627600 
				}
			}
		}
	}
	JOINT rThigh
	{
		OFFSET -5.308129 -1.633274 1.361059 
		CHANNELS 3 Xrotation Zrotation Yrotation
		JOINT rShin
		{
			OFFSET 2.041588 -20.007561 0.000000 
			CHANNELS 3 Xrotation Zrotation Yrotation
			JOINT rFoot
			{
				OFFSET 0.000000 -19.190928 -1.224953 
				CHANNELS 3 Xrotation Yrotation Zrotation
				End Site
				{
					OFFSET 0.000000 -2.449906 4.627600 
				}
			}
		}
	}
}
MOTION
Frames: 6
Frame Time: 0.033333
2.886506 25.687408 2.886506 -111.953163 -2.861328 0.001462 40.326588 1.002315 1.341246 7.882160 1.264953 0.043987 -8.544922 -0.001505 -0.009645 8.744389 11.435531 -35.094128 2.000000 -2.000000 0.000000 -18.600552 -0.353838 17.283075 3.628795 -1.018372 8.275891 0.896274 18.995920 -18.318874 -2.000000 2.000000 0.000000 -2.586261 -0.411551 16.096237 -5.741798 1.031548 8.260436 -0.902044 -19.005135 -18.338219 4.726753 29.134459 -11.196248 33.750477 -1.046558 -2.671964 -2.289358 0.105653 -25.872421 4.442482 -19.171640 6.931480 32.140404 1.077824 2.550253 -11.807788 -0.070141 20.523598 
2.886506 25.647404 2.886506 -111.953163 -2.861328 0.001462 40.151119 1.017834 1.334283 7.813785 1.265068 0.042806 -8.544922 -0.001505 -0.009645 9.053147 11.376558 -37.395981 2.000000 -2.000000 0.000000 -18.242071 -0.437751 17.435919 3.868601 -1.026361 8.272082 0.896274 18.995920 -18.318874 -2.000000 2.000000 0.000000 -3.040364 -0.159297 16.189497 -6.350763 1.045303 8.266924 -0.902044 -19.005135 -18.338219 3.575296 28.633791 -9.762881 35.273113 -0.972852 -2.785788 -3.861829 -0.746705 -24.642372 3.731002 -18.434948 6.647888 32.901852 1.043797 2.608711 -11.788295 0.126451 19.754009 
2.886506 25.612274 2.886506 -111.953163 -2.861328 0.001462 40.024181 1.020731 1.331019 7.774714 1.265133 0.042108 -8.544922 -0.001505 -0.009645 9.441669 11.385388 -39.713287 2.000000 -2.000000 0.000000 -17.928822 -0.516193 17.558641 4.068807 -1.028561 8.277927 0.896274 18.995920 -18.318874 -2.000000 2.000000 0.000000 -3.459064 0.061799 16.266848 -6.886011 1.044225 8.262498 -0.902044 -19.005135 -18.338219 3.233296 28.505781 -7.790832 35.995800 -0.925883 -2.827466 -4.722905 -2.227737 -23.494160 3.457316 -18.298025 5.908356 33.214752 1.039363 2.613590 -11.784986 0.863926 19.326876 
2.886506 25.607273 2.886506 -111.953163 -2.861328 0.001462 39.897247 1.023619 1.327837 7.716107 1.265228 0.041060 -8.544922 -0.001505 -0.009645 9.860373 11.452152 -42.001884 2.000000 -2.000000 0.000000 -17.670506 -0.580632 17.655939 4.238727 -1.032648 8.277746 0.896274 18.995920 -18.318874 -2.000000 2.000000 0.000000 -3.803251 0.251747 16.328270 -7.355978 1.048037 8.254326 -0.902044 -19.005135 -18.338219 3.535428 28.601389 -5.470212 36.055317 -0.949013 -2.798818 -4.953662 -4.172677 -22.366682 3.622901 -18.520992 4.751162 33.126656 1.048176 2.611582 -11.802835 1.964777 19.123737 
2.886506 25.577271 2.886506 -111.953163 -2.861328 0.001462 39.809368 1.025615 1.325624 7.677036 1.265292 0.040362 -8.544922 -0.001505 -0.009645 10.299516 11.566984 -44.274387 2.000000 -2.000000 0.000000 -17.437643 -0.648212 17.718315 4.373759 -1.030141 8.278562 0.896274 18.995920 -18.318874 -2.000000 2.000000 0.000000 -4.093565 0.405862 16.365183 -7.738242 1.051826 8.261168 -0.902044 -19.005135 -18.338219 3.906552 28.754673 -2.819340 36.093819 -0.923830 -2.822219 -5.110484 -6.338647 -21.198446 3.760103 -18.797239 3.564599 33.028633 1.049212 2.616620 -11.820366 3.128590 18.942230 
2.886506 25.567270 2.886506 -111.953163 -2.861328 0.001462 39.741016 1.027165 1.323851 7.657500 1.265323 0.040013 -8.544922 -0.001505 -0.009645 10.759283 11.719983 -46.490868 2.000000 -2.000000 0.000000 -17.262188 -0.702569 17.776924 4.491739 -1.028274 8.269716 0.896274 18.995920 -18.318874 -2.000000 2.000000 0.000000 -4.337404 0.533512 16.394579 -8.060065 1.060844 8.255652 -0.902044 -19.005135 -18.338219 4.325819 28.950392 0.042567 36.123039 -0.927003 -2.824448 -5.214949 -8.695173 -19.978960 3.906091 -19.125813 2.287117 32.970448 1.047854 2.603585 -11.847878 4.390584 18.811558 
